<svg version="1.1" viewBox="0.0 0.0 960.0 540.0" fill="none" stroke="none" stroke-linecap="square" stroke-miterlimit="10" xmlns:xlink="http://www.w3.org/1999/xlink" xmlns="http://www.w3.org/2000/svg"><clipPath id="g85b00560bb_0_225.0"><path d="m0 0l960.0 0l0 540.0l-960.0 0l0 -540.0z" clip-rule="nonzero"/></clipPath><g clip-path="url(#g85b00560bb_0_225.0)"><path fill="#ffffff" d="m0 0l960.0 0l0 540.0l-960.0 0z" fill-rule="evenodd"/><path fill="#eeeeee" d="m213.67491 12.293963l154.6183 0l0 508.68503l-154.6183 0z" fill-rule="evenodd"/><path fill="#000000" fill-opacity="0.0" d="m233.0022 12.293963l0 508.68503m-19.327286 -445.09943l154.6183 0" fill-rule="evenodd"/><path fill="#000000" fill-opacity="0.0" d="m213.67491 12.293963l154.6183 0l0 508.68503l-154.6183 0z" fill-rule="evenodd"/><path stroke="#595959" stroke-width="1.0" stroke-linejoin="round" stroke-linecap="butt" d="m233.0022 12.293963l0 508.68503m-19.327286 -445.09943l154.6183 0" fill-rule="evenodd"/><path stroke="#595959" stroke-width="1.0" stroke-linejoin="round" stroke-linecap="butt" d="m213.67491 12.293963l154.6183 0l0 508.68503l-154.6183 0z" fill-rule="evenodd"/><path fill="#000000" d="m272.6602 261.56805q-0.90625 0 -1.765625 -0.3125q-0.84375 -0.328125 -1.515625 -0.9375q-0.65625 -0.625 -1.046875 -1.53125q-0.390625 -0.90625 -0.390625 -2.0625q0 -1.1562653 0.390625 -2.0625153q0.390625 -0.90625 1.046875 -1.515625q0.671875 -0.625 1.515625 -0.953125q0.859375 -0.328125 1.765625 -0.328125q0.921875 0 1.765625 0.328125q0.84375 0.328125 1.5 0.953125q0.671875 0.609375 1.0625 1.515625q0.390625 0.90625 0.390625 2.0625153q0 1.15625 -0.390625 2.0625q-0.390625 0.90625 -1.0625 1.53125q-0.65625 0.609375 -1.5 0.9375q-0.84375 0.3125 -1.765625 0.3125zm0 -2.21875q0.953125 0 1.421875 -0.703125q0.484375 -0.71875 0.484375 -1.921875q0 -1.2187653 -0.484375 -1.9218903q-0.46875 -0.703125 -1.421875 -0.703125q-0.953125 0 -1.4375 0.703125q-0.46875 0.703125 -0.46875 1.9218903q0 1.203125 0.46875 1.921875q0.484375 0.703125 1.4375 0.703125zm9.756256 2.21875q-1.578125 0 -2.296875 -1.0q-0.703125 -1.015625 -0.703125 -2.765625l0 -5.7031403l2.75 0l0 5.3437653q0 0.9375 0.265625 1.375q0.28125 0.421875 1.078125 0.421875q0.515625 0 0.90625 -0.21875q0.40625 -0.234375 0.890625 -0.84375l0 -6.0781403l2.75 0l0 9.250015l-2.234375 0l-0.21875 -1.328125l-0.0625 0q-0.625 0.71875 -1.375 1.140625q-0.734375 0.40625 -1.75 0.40625zm14.271881 0q-1.09375 0 -1.859375 -0.296875q-0.765625 -0.296875 -1.25 -0.828125q-0.46875 -0.53125 -0.671875 -1.265625q-0.203125 -0.75 -0.203125 -1.671875l0 -3.2656403l-2.328125 0l0 -2.03125l2.453125 -0.109375l0.359375 -2.84375l2.25 0l0 2.84375l3.921875 0l0 2.140625l-3.921875 0l0 3.2500153q0 1.0625 0.46875 1.5q0.46875 0.4375 1.5 0.4375q0.515625 0 0.953125 -0.09375q0.4375 -0.09375 0.875 -0.234375l0.484375 1.96875q-0.625 0.1875 -1.359375 0.34375q-0.734375 0.15625 -1.671875 0.15625zm5.303131 3.21875l0 -12.687515l2.234375 0l0.203125 0.921875l0.0625 0q0.5625 -0.5 1.28125 -0.828125q0.734375 -0.328125 1.484375 -0.328125q0.859375 0 1.546875 0.34375q0.6875 0.328125 1.171875 0.953125q0.484375 0.609375 0.734375 1.484375q0.25 0.859375 0.25 1.9218903q0 1.203125 -0.34375 2.125q-0.328125 0.921875 -0.890625 1.5625q-0.546875 0.640625 -1.265625 0.984375q-0.71875 0.328125 -1.5 0.328125q-1.28125 0 -2.28125 -1.0l-0.078125 0l0.125 1.515625l0 2.703125l-2.734375 0zm4.328125 -5.453125q0.78125 0 1.296875 -0.640625q0.53125 -0.640625 0.53125 -2.078125q0 -2.5000153 -1.703125 -2.5000153q-0.875 0 -1.71875 0.859375l0 3.7500153q0.40625 0.328125 0.8125 0.46875q0.421875 0.140625 0.78125 0.140625zm9.678131 2.234375q-1.578125 0 -2.296875 -1.0q-0.703125 -1.015625 -0.703125 -2.765625l0 -5.7031403l2.75 0l0 5.3437653q0 0.9375 0.265625 1.375q0.28125 0.421875 1.078125 0.421875q0.515625 0 0.90625 -0.21875q0.40625 -0.234375 0.890625 -0.84375l0 -6.0781403l2.75 0l0 9.250015l-2.234375 0l-0.21875 -1.328125l-0.0625 0q-0.625 0.71875 -1.375 1.140625q-0.734375 0.40625 -1.75 0.40625zm14.271881 0q-1.09375 0 -1.859375 -0.296875q-0.765625 -0.296875 -1.25 -0.828125q-0.46875 -0.53125 -0.671875 -1.265625q-0.203125 -0.75 -0.203125 -1.671875l0 -3.2656403l-2.328125 0l0 -2.03125l2.453125 -0.109375l0.359375 -2.84375l2.25 0l0 2.84375l3.921875 0l0 2.140625l-3.921875 0l0 3.2500153q0 1.0625 0.46875 1.5q0.46875 0.4375 1.5 0.4375q0.515625 0 0.953125 -0.09375q0.4375 -0.09375 0.875 -0.234375l0.484375 1.96875q-0.625 0.1875 -1.359375 0.34375q-0.734375 0.15625 -1.671875 0.15625z" fill-rule="nonzero"/><path fill="#c9daf8" d="m382.75327 214.49081l70.28345 0l52.141724 52.141724l-52.141724 52.141754l-70.28345 0z" fill-rule="evenodd"/><path stroke="#595959" stroke-width="1.0" stroke-linejoin="round" stroke-linecap="butt" d="m382.75327 214.49081l70.28345 0l52.141724 52.141724l-52.141724 52.141754l-70.28345 0z" fill-rule="evenodd"/><path fill="#000000" d="m392.59702 269.25568l1.65625 -0.140625q0.125 1.0 0.546875 1.640625q0.4375 0.640625 1.34375 1.046875q0.921875 0.390625 2.0625 0.390625q1.0 0 1.78125 -0.296875q0.78125 -0.296875 1.15625 -0.8125q0.375 -0.53125 0.375 -1.15625q0 -0.625 -0.375 -1.09375q-0.359375 -0.46875 -1.1875 -0.796875q-0.546875 -0.203125 -2.390625 -0.640625q-1.828125 -0.453125 -2.5625 -0.84375q-0.96875 -0.5 -1.4375 -1.234375q-0.46875 -0.75 -0.46875 -1.671875q0 -1.0 0.578125 -1.875q0.578125 -0.890625 1.671875 -1.34375q1.109375 -0.453125 2.453125 -0.453125q1.484375 0 2.609375 0.484375q1.140625 0.46875 1.75 1.40625q0.609375 0.921875 0.65625 2.09375l-1.6875 0.125q-0.140625 -1.265625 -0.9375 -1.90625q-0.78125 -0.65625 -2.3125 -0.65625q-1.609375 0 -2.34375 0.59375q-0.734375 0.59375 -0.734375 1.421875q0 0.71875 0.53125 1.171875q0.5 0.46875 2.65625 0.96875q2.15625 0.484375 2.953125 0.84375q1.171875 0.53125 1.71875 1.359375q0.5625 0.828125 0.5625 1.90625q0 1.0625 -0.609375 2.015625q-0.609375 0.9375 -1.75 1.46875q-1.140625 0.515625 -2.578125 0.515625q-1.8125 0 -3.046875 -0.53125q-1.21875 -0.53125 -1.921875 -1.59375q-0.6875 -1.0625 -0.71875 -2.40625zm12.834198 4.296875l0 -13.359375l1.640625 0l0 4.796875q1.140625 -1.328125 2.890625 -1.328125q1.078125 0 1.859375 0.421875q0.796875 0.421875 1.140625 1.171875q0.34375 0.75 0.34375 2.171875l0 6.125l-1.640625 0l0 -6.125q0 -1.234375 -0.53125 -1.796875q-0.53125 -0.5625 -1.515625 -0.5625q-0.71875 0 -1.359375 0.390625q-0.640625 0.375 -0.921875 1.015625q-0.265625 0.640625 -0.265625 1.78125l0 5.296875l-1.640625 0zm16.688202 -1.1875q-0.921875 0.765625 -1.765625 1.09375q-0.828125 0.3125 -1.796875 0.3125q-1.59375 0 -2.453125 -0.78125q-0.859375 -0.78125 -0.859375 -1.984375q0 -0.71875 0.328125 -1.296875q0.328125 -0.59375 0.84375 -0.9375q0.53125 -0.359375 1.1875 -0.546875q0.46875 -0.125 1.453125 -0.25q1.984375 -0.234375 2.921875 -0.5625q0.015625 -0.34375 0.015625 -0.421875q0 -1.0 -0.46875 -1.421875q-0.625 -0.546875 -1.875 -0.546875q-1.15625 0 -1.703125 0.40625q-0.546875 0.40625 -0.8125 1.421875l-1.609375 -0.21875q0.21875 -1.015625 0.71875 -1.640625q0.5 -0.640625 1.453125 -0.984375q0.953125 -0.34375 2.1875 -0.34375q1.25 0 2.015625 0.296875q0.78125 0.28125 1.140625 0.734375q0.375 0.4375 0.515625 1.109375q0.078125 0.421875 0.078125 1.515625l0 2.1875q0 2.28125 0.109375 2.890625q0.109375 0.59375 0.40625 1.15625l-1.703125 0q-0.265625 -0.515625 -0.328125 -1.1875zm-0.140625 -3.671875q-0.890625 0.375 -2.671875 0.625q-1.015625 0.140625 -1.4375 0.328125q-0.421875 0.1875 -0.65625 0.53125q-0.21875 0.34375 -0.21875 0.78125q0 0.65625 0.5 1.09375q0.5 0.4375 1.453125 0.4375q0.9375 0 1.671875 -0.40625q0.75 -0.421875 1.09375 -1.140625q0.265625 -0.5625 0.265625 -1.640625l0 -0.609375zm4.1882324 4.859375l0 -9.671875l1.46875 0l0 1.46875q0.5625 -1.03125 1.03125 -1.359375q0.484375 -0.328125 1.0625 -0.328125q0.828125 0 1.6875 0.53125l-0.5625 1.515625q-0.609375 -0.359375 -1.203125 -0.359375q-0.546875 0 -0.96875 0.328125q-0.421875 0.328125 -0.609375 0.890625q-0.28125 0.875 -0.28125 1.921875l0 5.0625l-1.625 0zm12.493927 0l0 -1.21875q-0.90625 1.4375 -2.703125 1.4375q-1.15625 0 -2.125 -0.640625q-0.96875 -0.640625 -1.5 -1.78125q-0.53125 -1.140625 -0.53125 -2.625q0 -1.453125 0.484375 -2.625q0.484375 -1.1875 1.4375 -1.8125q0.96875 -0.625 2.171875 -0.625q0.875 0 1.546875 0.375q0.6875 0.359375 1.109375 0.953125l0 -4.796875l1.640625 0l0 13.359375l-1.53125 0zm-5.171875 -4.828125q0 1.859375 0.78125 2.78125q0.78125 0.921875 1.84375 0.921875q1.078125 0 1.828125 -0.875q0.75 -0.890625 0.75 -2.6875q0 -1.984375 -0.765625 -2.90625q-0.765625 -0.9375 -1.890625 -0.9375q-1.078125 0 -1.8125 0.890625q-0.734375 0.890625 -0.734375 2.8125zm9.281952 -6.640625l0 -1.890625l1.640625 0l0 1.890625l-1.640625 0zm0 11.46875l0 -9.671875l1.640625 0l0 9.671875l-1.640625 0zm4.1448364 0l0 -9.671875l1.46875 0l0 1.375q1.0625 -1.59375 3.078125 -1.59375q0.875 0 1.609375 0.3125q0.734375 0.3125 1.09375 0.828125q0.375 0.5 0.515625 1.203125q0.09375 0.453125 0.09375 1.59375l0 5.953125l-1.640625 0l0 -5.890625q0 -1.0 -0.203125 -1.484375q-0.1875 -0.5 -0.671875 -0.796875q-0.484375 -0.296875 -1.140625 -0.296875q-1.046875 0 -1.8125 0.671875q-0.75 0.65625 -0.75 2.515625l0 5.28125l-1.640625 0zm10.063202 0.796875l1.59375 0.234375q0.109375 0.75 0.5625 1.078125q0.609375 0.453125 1.671875 0.453125q1.140625 0 1.75 -0.453125q0.625 -0.453125 0.84375 -1.265625q0.125 -0.5 0.109375 -2.109375q-1.0625 1.265625 -2.671875 1.265625q-2.0 0 -3.09375 -1.4375q-1.09375 -1.4375 -1.09375 -3.453125q0 -1.390625 0.5 -2.5625q0.515625 -1.171875 1.453125 -1.796875q0.953125 -0.640625 2.25 -0.640625q1.703125 0 2.8125 1.375l0 -1.15625l1.515625 0l0 8.359375q0 2.265625 -0.46875 3.203125q-0.453125 0.9375 -1.453125 1.484375q-0.984375 0.546875 -2.453125 0.546875q-1.71875 0 -2.796875 -0.78125q-1.0625 -0.765625 -1.03125 -2.34375zm1.359375 -5.8125q0 1.90625 0.75 2.78125q0.765625 0.875 1.90625 0.875q1.125 0 1.890625 -0.859375q0.765625 -0.875 0.765625 -2.734375q0 -1.78125 -0.796875 -2.671875q-0.78125 -0.90625 -1.890625 -0.90625q-1.09375 0 -1.859375 0.890625q-0.765625 0.875 -0.765625 2.625z" fill-rule="nonzero"/><path fill="#eeeeee" d="m573.32806 12.577428l154.64044 0l0 96.83243l-154.64044 0z" fill-rule="evenodd"/><path fill="#000000" fill-opacity="0.0" d="m592.65814 12.577428l0 96.83243m-19.330078 -84.72838l154.64044 0" fill-rule="evenodd"/><path fill="#000000" fill-opacity="0.0" d="m573.32806 12.577428l154.64044 0l0 96.83243l-154.64044 0z" fill-rule="evenodd"/><path stroke="#595959" stroke-width="1.0" stroke-linejoin="round" stroke-linecap="butt" d="m592.65814 12.577428l0 96.83243m-19.330078 -84.72838l154.64044 0" fill-rule="evenodd"/><path stroke="#595959" stroke-width="1.0" stroke-linejoin="round" stroke-linecap="butt" d="m573.32806 12.577428l154.64044 0l0 96.83243l-154.64044 0z" fill-rule="evenodd"/><path fill="#000000" d="m606.04877 72.29755q-0.71875 0 -1.390625 -0.25q-0.65625 -0.265625 -1.1875 -0.734375q-0.515625 -0.484375 -0.828125 -1.1875q-0.296875 -0.71875 -0.296875 -1.640625q0 -0.90625 0.296875 -1.609375q0.3125 -0.71875 0.828125 -1.203125q0.53125 -0.484375 1.1875 -0.734375q0.671875 -0.265625 1.390625 -0.265625q0.71875 0 1.390625 0.265625q0.671875 0.25 1.1875 0.734375q0.515625 0.484375 0.828125 1.203125q0.3125 0.703125 0.3125 1.609375q0 0.921875 -0.3125 1.640625q-0.3125 0.703125 -0.828125 1.1875q-0.515625 0.46875 -1.1875 0.734375q-0.671875 0.25 -1.390625 0.25zm0 -1.734375q0.75 0 1.125 -0.5625q0.375 -0.5625 0.375 -1.515625q0 -0.953125 -0.375 -1.5q-0.375 -0.5625 -1.125 -0.5625q-0.734375 0 -1.109375 0.5625q-0.375 0.546875 -0.375 1.5q0 0.953125 0.375 1.515625q0.375 0.5625 1.109375 0.5625zm7.668762 1.734375q-1.25 0 -1.8125 -0.78125q-0.546875 -0.796875 -0.546875 -2.171875l0 -4.484375l2.15625 0l0 4.203125q0 0.734375 0.21875 1.078125q0.21875 0.328125 0.84375 0.328125q0.40625 0 0.71875 -0.171875q0.3125 -0.1875 0.703125 -0.65625l0 -4.78125l2.140625 0l0 7.265625l-1.75 0l-0.15625 -1.046875l-0.0625 0q-0.484375 0.5625 -1.078125 0.890625q-0.578125 0.328125 -1.375 0.328125zm11.215637 0q-0.859375 0 -1.46875 -0.234375q-0.59375 -0.234375 -0.96875 -0.640625q-0.375 -0.421875 -0.546875 -1.0q-0.15625 -0.59375 -0.15625 -1.3125l0 -2.5625l-1.828125 0l0 -1.609375l1.9375 -0.078125l0.28125 -2.234375l1.765625 0l0 2.234375l3.078125 0l0 1.6875l-3.078125 0l0 2.546875q0 0.828125 0.359375 1.171875q0.375 0.34375 1.1875 0.34375q0.40625 0 0.75 -0.0625q0.34375 -0.078125 0.6875 -0.1875l0.375 1.546875q-0.484375 0.140625 -1.0625 0.265625q-0.578125 0.125 -1.3125 0.125zm4.1688232 2.53125l0 -9.96875l1.75 0l0.15625 0.734375l0.046875 0q0.4375 -0.40625 1.015625 -0.65625q0.578125 -0.265625 1.15625 -0.265625q0.671875 0 1.21875 0.265625q0.546875 0.265625 0.921875 0.75q0.375 0.484375 0.578125 1.171875q0.203125 0.671875 0.203125 1.515625q0 0.9375 -0.265625 1.671875q-0.265625 0.71875 -0.703125 1.21875q-0.4375 0.5 -1.015625 0.765625q-0.5625 0.265625 -1.171875 0.265625q-1.0 0 -1.78125 -0.78125l-0.0625 0l0.09375 1.1875l0 2.125l-2.140625 0zm3.390625 -4.28125q0.625 0 1.03125 -0.5q0.40625 -0.515625 0.40625 -1.640625q0 -1.96875 -1.328125 -1.96875q-0.6875 0 -1.359375 0.671875l0 2.953125q0.3125 0.265625 0.640625 0.375q0.328125 0.109375 0.609375 0.109375zm7.606262 1.75q-1.25 0 -1.8125 -0.78125q-0.546875 -0.796875 -0.546875 -2.171875l0 -4.484375l2.15625 0l0 4.203125q0 0.734375 0.21875 1.078125q0.21875 0.328125 0.84375 0.328125q0.40625 0 0.71875 -0.171875q0.3125 -0.1875 0.703125 -0.65625l0 -4.78125l2.140625 0l0 7.265625l-1.75 0l-0.15625 -1.046875l-0.0625 0q-0.484375 0.5625 -1.078125 0.890625q-0.578125 0.328125 -1.375 0.328125zm11.215637 0q-0.859375 0 -1.46875 -0.234375q-0.59375 -0.234375 -0.96875 -0.640625q-0.375 -0.421875 -0.546875 -1.0q-0.15625 -0.59375 -0.15625 -1.3125l0 -2.5625l-1.828125 0l0 -1.609375l1.9375 -0.078125l0.28125 -2.234375l1.765625 0l0 2.234375l3.078125 0l0 1.6875l-3.078125 0l0 2.546875q0 0.828125 0.359375 1.171875q0.375 0.34375 1.1875 0.34375q0.40625 0 0.75 -0.0625q0.34375 -0.078125 0.6875 -0.1875l0.375 1.546875q-0.484375 0.140625 -1.0625 0.265625q-0.578125 0.125 -1.3125 0.125zm3.9812622 2.234375l0 -1.609375l7.046875 0l0 1.609375l-7.046875 0zm8.793823 0l0 -1.609375l7.046875 0l0 1.609375l-7.046875 0zm13.137512 -2.234375q-0.890625 0 -1.703125 -0.3125q-0.796875 -0.3125 -1.40625 -0.921875q-0.59375 -0.625 -0.953125 -1.53125q-0.359375 -0.921875 -0.359375 -2.125q0 -1.1875 0.34375 -2.109375q0.359375 -0.9375 0.96875 -1.578125q0.609375 -0.65625 1.4375 -0.984375q0.84375 -0.34375 1.796875 -0.34375q0.921875 0 1.640625 0.375q0.734375 0.375 1.21875 0.84375l-1.1875 1.328125q-0.328125 -0.296875 -0.734375 -0.484375q-0.40625 -0.203125 -0.9375 -0.203125q-0.5 0 -0.9375 0.21875q-0.421875 0.203125 -0.734375 0.609375q-0.3125 0.390625 -0.5 0.96875q-0.171875 0.5625 -0.171875 1.28125q0 1.484375 0.671875 2.296875q0.6875 0.8125 1.765625 0.8125q0.515625 0 0.9375 -0.234375q0.4375 -0.234375 0.796875 -0.609375l1.1875 1.296875q-1.1875 1.40625 -3.140625 1.40625zm4.637512 -0.171875l0 -10.28125l2.140625 0l0 2.53125l-0.109375 1.390625l0.046875 0q0.40625 -0.421875 0.984375 -0.75q0.59375 -0.34375 1.4375 -0.34375q1.21875 0 1.78125 0.796875q0.578125 0.796875 0.578125 2.171875l0 4.484375l-2.15625 0l0 -4.203125q0 -0.734375 -0.234375 -1.0625q-0.234375 -0.34375 -0.84375 -0.34375q-0.4375 0 -0.765625 0.1875q-0.328125 0.1875 -0.71875 0.578125l0 4.84375l-2.140625 0zm9.434387 0l0 -7.265625l1.75 0l0.1875 1.578125l0.03125 0q0.546875 -0.890625 1.3125 -1.328125q0.765625 -0.4375 1.640625 -0.4375q0.484375 0 0.78125 0.078125q0.296875 0.078125 0.625 0.21875l-0.4375 1.8125q-0.34375 -0.109375 -0.609375 -0.15625q-0.265625 -0.0625 -0.6875 -0.0625q-0.671875 0 -1.328125 0.40625q-0.640625 0.390625 -1.109375 1.375l0 3.78125l-2.15625 0zm8.246948 0l0 -1.75l2.515625 0l0 -5.375l-2.078125 0l0 -1.328125q0.46875 -0.078125 0.84375 -0.15625q0.375 -0.078125 0.671875 -0.171875q0.3125 -0.109375 0.578125 -0.234375q0.28125 -0.125 0.546875 -0.296875l1.578125 0l0 7.5625l2.109375 0l0 1.75l-6.765625 0z" fill-rule="nonzero"/><path fill="#000000" fill-opacity="0.0" d="m213.66928 27.26123l154.64569 0" fill-rule="evenodd"/><path stroke="#595959" stroke-width="1.0" stroke-linejoin="round" stroke-linecap="butt" d="m213.66928 27.26123l154.64569 0" fill-rule="evenodd"/><path fill="#000000" fill-opacity="0.0" d="m213.67116 44.12801l154.64568 0" fill-rule="evenodd"/><path stroke="#595959" stroke-width="1.0" stroke-linejoin="round" stroke-linecap="butt" d="m213.67116 44.12801l154.64568 0" fill-rule="evenodd"/><path fill="#000000" fill-opacity="0.0" d="m213.66928 60.99443l154.64569 0" fill-rule="evenodd"/><path stroke="#595959" stroke-width="1.0" stroke-linejoin="round" stroke-linecap="butt" d="m213.66928 60.99443l154.64569 0" fill-rule="evenodd"/><path fill="#eeeeee" d="m573.32806 125.580635l154.64044 0l0 78.51591l-154.64044 0z" fill-rule="evenodd"/><path fill="#000000" fill-opacity="0.0" d="m592.65814 125.580635l0 78.51591m-19.330078 -68.701416l154.64044 0" fill-rule="evenodd"/><path fill="#000000" fill-opacity="0.0" d="m573.32806 125.580635l154.64044 0l0 78.51591l-154.64044 0z" fill-rule="evenodd"/><path stroke="#595959" stroke-width="1.0" stroke-linejoin="round" stroke-linecap="butt" d="m592.65814 125.580635l0 78.51591m-19.330078 -68.701416l154.64044 0" fill-rule="evenodd"/><path stroke="#595959" stroke-width="1.0" stroke-linejoin="round" stroke-linecap="butt" d="m573.32806 125.580635l154.64044 0l0 78.51591l-154.64044 0z" fill-rule="evenodd"/><path fill="#000000" d="m606.04877 174.99771q-0.71875 0 -1.390625 -0.25q-0.65625 -0.265625 -1.1875 -0.734375q-0.515625 -0.484375 -0.828125 -1.1875q-0.296875 -0.71875 -0.296875 -1.640625q0 -0.90625 0.296875 -1.609375q0.3125 -0.71875 0.828125 -1.203125q0.53125 -0.484375 1.1875 -0.734375q0.671875 -0.265625 1.390625 -0.265625q0.71875 0 1.390625 0.265625q0.671875 0.25 1.1875 0.734375q0.515625 0.484375 0.828125 1.203125q0.3125 0.703125 0.3125 1.609375q0 0.921875 -0.3125 1.640625q-0.3125 0.703125 -0.828125 1.1875q-0.515625 0.46875 -1.1875 0.734375q-0.671875 0.25 -1.390625 0.25zm0 -1.734375q0.75 0 1.125 -0.5625q0.375 -0.5625 0.375 -1.515625q0 -0.953125 -0.375 -1.5q-0.375 -0.5625 -1.125 -0.5625q-0.734375 0 -1.109375 0.5625q-0.375 0.546875 -0.375 1.5q0 0.953125 0.375 1.515625q0.375 0.5625 1.109375 0.5625zm7.668762 1.734375q-1.25 0 -1.8125 -0.78125q-0.546875 -0.796875 -0.546875 -2.171875l0 -4.484375l2.15625 0l0 4.203125q0 0.734375 0.21875 1.078125q0.21875 0.328125 0.84375 0.328125q0.40625 0 0.71875 -0.171875q0.3125 -0.1875 0.703125 -0.65625l0 -4.78125l2.140625 0l0 7.265625l-1.75 0l-0.15625 -1.046875l-0.0625 0q-0.484375 0.5625 -1.078125 0.890625q-0.578125 0.328125 -1.375 0.328125zm11.215637 0q-0.859375 0 -1.46875 -0.234375q-0.59375 -0.234375 -0.96875 -0.640625q-0.375 -0.421875 -0.546875 -1.0q-0.15625 -0.59375 -0.15625 -1.3125l0 -2.5625l-1.828125 0l0 -1.609375l1.9375 -0.078125l0.28125 -2.234375l1.765625 0l0 2.234375l3.078125 0l0 1.6875l-3.078125 0l0 2.546875q0 0.828125 0.359375 1.171875q0.375 0.34375 1.1875 0.34375q0.40625 0 0.75 -0.0625q0.34375 -0.078125 0.6875 -0.1875l0.375 1.546875q-0.484375 0.140625 -1.0625 0.265625q-0.578125 0.125 -1.3125 0.125zm4.1688232 2.53125l0 -9.96875l1.75 0l0.15625 0.734375l0.046875 0q0.4375 -0.40625 1.015625 -0.65625q0.578125 -0.265625 1.15625 -0.265625q0.671875 0 1.21875 0.265625q0.546875 0.265625 0.921875 0.75q0.375 0.484375 0.578125 1.171875q0.203125 0.671875 0.203125 1.515625q0 0.9375 -0.265625 1.671875q-0.265625 0.71875 -0.703125 1.21875q-0.4375 0.5 -1.015625 0.765625q-0.5625 0.265625 -1.171875 0.265625q-1.0 0 -1.78125 -0.78125l-0.0625 0l0.09375 1.1875l0 2.125l-2.140625 0zm3.390625 -4.28125q0.625 0 1.03125 -0.5q0.40625 -0.515625 0.40625 -1.640625q0 -1.96875 -1.328125 -1.96875q-0.6875 0 -1.359375 0.671875l0 2.953125q0.3125 0.265625 0.640625 0.375q0.328125 0.109375 0.609375 0.109375zm7.606262 1.75q-1.25 0 -1.8125 -0.78125q-0.546875 -0.796875 -0.546875 -2.171875l0 -4.484375l2.15625 0l0 4.203125q0 0.734375 0.21875 1.078125q0.21875 0.328125 0.84375 0.328125q0.40625 0 0.71875 -0.171875q0.3125 -0.1875 0.703125 -0.65625l0 -4.78125l2.140625 0l0 7.265625l-1.75 0l-0.15625 -1.046875l-0.0625 0q-0.484375 0.5625 -1.078125 0.890625q-0.578125 0.328125 -1.375 0.328125zm11.215637 0q-0.859375 0 -1.46875 -0.234375q-0.59375 -0.234375 -0.96875 -0.640625q-0.375 -0.421875 -0.546875 -1.0q-0.15625 -0.59375 -0.15625 -1.3125l0 -2.5625l-1.828125 0l0 -1.609375l1.9375 -0.078125l0.28125 -2.234375l1.765625 0l0 2.234375l3.078125 0l0 1.6875l-3.078125 0l0 2.546875q0 0.828125 0.359375 1.171875q0.375 0.34375 1.1875 0.34375q0.40625 0 0.75 -0.0625q0.34375 -0.078125 0.6875 -0.1875l0.375 1.546875q-0.484375 0.140625 -1.0625 0.265625q-0.578125 0.125 -1.3125 0.125zm3.9812622 2.234375l0 -1.609375l7.046875 0l0 1.609375l-7.046875 0zm8.793823 0l0 -1.609375l7.046875 0l0 1.609375l-7.046875 0zm13.137512 -2.234375q-0.890625 0 -1.703125 -0.3125q-0.796875 -0.3125 -1.40625 -0.921875q-0.59375 -0.625 -0.953125 -1.53125q-0.359375 -0.921875 -0.359375 -2.125q0 -1.1875 0.34375 -2.109375q0.359375 -0.9375 0.96875 -1.578125q0.609375 -0.65625 1.4375 -0.984375q0.84375 -0.34375 1.796875 -0.34375q0.921875 0 1.640625 0.375q0.734375 0.375 1.21875 0.84375l-1.1875 1.328125q-0.328125 -0.296875 -0.734375 -0.484375q-0.40625 -0.203125 -0.9375 -0.203125q-0.5 0 -0.9375 0.21875q-0.421875 0.203125 -0.734375 0.609375q-0.3125 0.390625 -0.5 0.96875q-0.171875 0.5625 -0.171875 1.28125q0 1.484375 0.671875 2.296875q0.6875 0.8125 1.765625 0.8125q0.515625 0 0.9375 -0.234375q0.4375 -0.234375 0.796875 -0.609375l1.1875 1.296875q-1.1875 1.40625 -3.140625 1.40625zm4.637512 -0.171875l0 -10.28125l2.140625 0l0 2.53125l-0.109375 1.390625l0.046875 0q0.40625 -0.421875 0.984375 -0.75q0.59375 -0.34375 1.4375 -0.34375q1.21875 0 1.78125 0.796875q0.578125 0.796875 0.578125 2.171875l0 4.484375l-2.15625 0l0 -4.203125q0 -0.734375 -0.234375 -1.0625q-0.234375 -0.34375 -0.84375 -0.34375q-0.4375 0 -0.765625 0.1875q-0.328125 0.1875 -0.71875 0.578125l0 4.84375l-2.140625 0zm9.434387 0l0 -7.265625l1.75 0l0.1875 1.578125l0.03125 0q0.546875 -0.890625 1.3125 -1.328125q0.765625 -0.4375 1.640625 -0.4375q0.484375 0 0.78125 0.078125q0.296875 0.078125 0.625 0.21875l-0.4375 1.8125q-0.34375 -0.109375 -0.609375 -0.15625q-0.265625 -0.0625 -0.6875 -0.0625q-0.671875 0 -1.328125 0.40625q-0.640625 0.390625 -1.109375 1.375l0 3.78125l-2.15625 0zm7.9344482 0l0 -1.234375q1.0 -0.828125 1.8125 -1.546875q0.828125 -0.734375 1.40625 -1.359375q0.59375 -0.640625 0.921875 -1.1875q0.328125 -0.5625 0.328125 -1.0625q0 -0.6875 -0.40625 -1.046875q-0.390625 -0.359375 -1.125 -0.359375q-0.5625 0 -1.03125 0.296875q-0.453125 0.28125 -0.84375 0.65625l-1.15625 -1.15625q0.359375 -0.375 0.71875 -0.640625q0.359375 -0.28125 0.765625 -0.46875q0.40625 -0.1875 0.84375 -0.28125q0.453125 -0.09375 1.0 -0.09375q0.734375 0 1.328125 0.21875q0.609375 0.203125 1.03125 0.59375q0.4375 0.390625 0.671875 0.9375q0.25 0.53125 0.25 1.21875q0 0.578125 -0.28125 1.1875q-0.28125 0.609375 -0.765625 1.21875q-0.46875 0.609375 -1.09375 1.21875q-0.609375 0.609375 -1.28125 1.1875q0.40625 -0.046875 0.859375 -0.078125q0.46875 -0.03125 0.828125 -0.03125l2.21875 0l0 1.8125l-7.0 0z" fill-rule="nonzero"/><path fill="#eeeeee" d="m573.32806 220.28242l154.64044 0l0 71.261246l-154.64044 0z" fill-rule="evenodd"/><path fill="#000000" fill-opacity="0.0" d="m592.65814 220.28242l0 71.261246m-19.330078 -62.353592l154.64044 0" fill-rule="evenodd"/><path fill="#000000" fill-opacity="0.0" d="m573.32806 220.28242l154.64044 0l0 71.261246l-154.64044 0z" fill-rule="evenodd"/><path stroke="#595959" stroke-width="1.0" stroke-linejoin="round" stroke-linecap="butt" d="m592.65814 220.28242l0 71.261246m-19.330078 -62.353592l154.64044 0" fill-rule="evenodd"/><path stroke="#595959" stroke-width="1.0" stroke-linejoin="round" stroke-linecap="butt" d="m573.32806 220.28242l154.64044 0l0 71.261246l-154.64044 0z" fill-rule="evenodd"/><path fill="#000000" d="m606.04877 265.61874q-0.71875 0 -1.390625 -0.25q-0.65625 -0.265625 -1.1875 -0.734375q-0.515625 -0.484375 -0.828125 -1.1875q-0.296875 -0.71875 -0.296875 -1.640625q0 -0.90625 0.296875 -1.609375q0.3125 -0.71875 0.828125 -1.203125q0.53125 -0.484375 1.1875 -0.734375q0.671875 -0.265625 1.390625 -0.265625q0.71875 0 1.390625 0.265625q0.671875 0.25 1.1875 0.734375q0.515625 0.484375 0.828125 1.203125q0.3125 0.703125 0.3125 1.609375q0 0.921875 -0.3125 1.640625q-0.3125 0.703125 -0.828125 1.1875q-0.515625 0.46875 -1.1875 0.734375q-0.671875 0.25 -1.390625 0.25zm0 -1.734375q0.75 0 1.125 -0.5625q0.375 -0.5625 0.375 -1.515625q0 -0.953125 -0.375 -1.5q-0.375 -0.5625 -1.125 -0.5625q-0.734375 0 -1.109375 0.5625q-0.375 0.546875 -0.375 1.5q0 0.953125 0.375 1.515625q0.375 0.5625 1.109375 0.5625zm7.668762 1.734375q-1.25 0 -1.8125 -0.78125q-0.546875 -0.796875 -0.546875 -2.171875l0 -4.484375l2.15625 0l0 4.203125q0 0.734375 0.21875 1.078125q0.21875 0.328125 0.84375 0.328125q0.40625 0 0.71875 -0.171875q0.3125 -0.1875 0.703125 -0.65625l0 -4.78125l2.140625 0l0 7.265625l-1.75 0l-0.15625 -1.046875l-0.0625 0q-0.484375 0.5625 -1.078125 0.890625q-0.578125 0.328125 -1.375 0.328125zm11.215637 0q-0.859375 0 -1.46875 -0.234375q-0.59375 -0.234375 -0.96875 -0.640625q-0.375 -0.421875 -0.546875 -1.0q-0.15625 -0.59375 -0.15625 -1.3125l0 -2.5625l-1.828125 0l0 -1.609375l1.9375 -0.078125l0.28125 -2.2343597l1.765625 0l0 2.2343597l3.078125 0l0 1.6875l-3.078125 0l0 2.546875q0 0.828125 0.359375 1.171875q0.375 0.34375 1.1875 0.34375q0.40625 0 0.75 -0.0625q0.34375 -0.078125 0.6875 -0.1875l0.375 1.546875q-0.484375 0.140625 -1.0625 0.265625q-0.578125 0.125 -1.3125 0.125zm4.1688232 2.53125l0 -9.96875l1.75 0l0.15625 0.734375l0.046875 0q0.4375 -0.40625 1.015625 -0.65625q0.578125 -0.265625 1.15625 -0.265625q0.671875 0 1.21875 0.265625q0.546875 0.265625 0.921875 0.75q0.375 0.484375 0.578125 1.171875q0.203125 0.671875 0.203125 1.515625q0 0.9375 -0.265625 1.671875q-0.265625 0.71875 -0.703125 1.21875q-0.4375 0.5 -1.015625 0.765625q-0.5625 0.265625 -1.171875 0.265625q-1.0 0 -1.78125 -0.78125l-0.0625 0l0.09375 1.1875l0 2.125l-2.140625 0zm3.390625 -4.28125q0.625 0 1.03125 -0.5q0.40625 -0.515625 0.40625 -1.640625q0 -1.96875 -1.328125 -1.96875q-0.6875 0 -1.359375 0.671875l0 2.953125q0.3125 0.265625 0.640625 0.375q0.328125 0.109375 0.609375 0.109375zm7.606262 1.75q-1.25 0 -1.8125 -0.78125q-0.546875 -0.796875 -0.546875 -2.171875l0 -4.484375l2.15625 0l0 4.203125q0 0.734375 0.21875 1.078125q0.21875 0.328125 0.84375 0.328125q0.40625 0 0.71875 -0.171875q0.3125 -0.1875 0.703125 -0.65625l0 -4.78125l2.140625 0l0 7.265625l-1.75 0l-0.15625 -1.046875l-0.0625 0q-0.484375 0.5625 -1.078125 0.890625q-0.578125 0.328125 -1.375 0.328125zm11.215637 0q-0.859375 0 -1.46875 -0.234375q-0.59375 -0.234375 -0.96875 -0.640625q-0.375 -0.421875 -0.546875 -1.0q-0.15625 -0.59375 -0.15625 -1.3125l0 -2.5625l-1.828125 0l0 -1.609375l1.9375 -0.078125l0.28125 -2.2343597l1.765625 0l0 2.2343597l3.078125 0l0 1.6875l-3.078125 0l0 2.546875q0 0.828125 0.359375 1.171875q0.375 0.34375 1.1875 0.34375q0.40625 0 0.75 -0.0625q0.34375 -0.078125 0.6875 -0.1875l0.375 1.546875q-0.484375 0.140625 -1.0625 0.265625q-0.578125 0.125 -1.3125 0.125zm3.9812622 2.234375l0 -1.609375l7.046875 0l0 1.609375l-7.046875 0zm8.793823 0l0 -1.609375l7.046875 0l0 1.609375l-7.046875 0zm13.137512 -2.234375q-0.890625 0 -1.703125 -0.3125q-0.796875 -0.3125 -1.40625 -0.921875q-0.59375 -0.625 -0.953125 -1.53125q-0.359375 -0.921875 -0.359375 -2.125q0 -1.1875 0.34375 -2.109375q0.359375 -0.9375 0.96875 -1.578125q0.609375 -0.65625 1.4375 -0.984375q0.84375 -0.34373474 1.796875 -0.34373474q0.921875 0 1.640625 0.37498474q0.734375 0.375 1.21875 0.84375l-1.1875 1.328125q-0.328125 -0.296875 -0.734375 -0.484375q-0.40625 -0.203125 -0.9375 -0.203125q-0.5 0 -0.9375 0.21875q-0.421875 0.203125 -0.734375 0.609375q-0.3125 0.390625 -0.5 0.96875q-0.171875 0.5625 -0.171875 1.28125q0 1.484375 0.671875 2.296875q0.6875 0.8125 1.765625 0.8125q0.515625 0 0.9375 -0.234375q0.4375 -0.234375 0.796875 -0.609375l1.1875 1.296875q-1.1875 1.40625 -3.140625 1.40625zm4.637512 -0.171875l0 -10.281235l2.140625 0l0 2.5312347l-0.109375 1.390625l0.046875 0q0.40625 -0.421875 0.984375 -0.75q0.59375 -0.34375 1.4375 -0.34375q1.21875 0 1.78125 0.796875q0.578125 0.796875 0.578125 2.171875l0 4.484375l-2.15625 0l0 -4.203125q0 -0.734375 -0.234375 -1.0625q-0.234375 -0.34375 -0.84375 -0.34375q-0.4375 0 -0.765625 0.1875q-0.328125 0.1875 -0.71875 0.578125l0 4.84375l-2.140625 0zm9.434387 0l0 -7.265625l1.75 0l0.1875 1.578125l0.03125 0q0.546875 -0.890625 1.3125 -1.328125q0.765625 -0.4375 1.640625 -0.4375q0.484375 0 0.78125 0.078125q0.296875 0.078125 0.625 0.21875l-0.4375 1.8125q-0.34375 -0.109375 -0.609375 -0.15625q-0.265625 -0.0625 -0.6875 -0.0625q-0.671875 0 -1.328125 0.40625q-0.640625 0.390625 -1.109375 1.375l0 3.78125l-2.15625 0zm11.184448 0.171875q-1.203125 0 -2.078125 -0.359375q-0.859375 -0.359375 -1.40625 -0.953125l1.0 -1.359375q0.46875 0.40625 1.046875 0.671875q0.578125 0.265625 1.234375 0.265625q0.75 0 1.234375 -0.28125q0.5 -0.296875 0.5 -0.828125q0 -0.296875 -0.140625 -0.546875q-0.125 -0.25 -0.453125 -0.421875q-0.3125 -0.171875 -0.859375 -0.265625q-0.53125 -0.09375 -1.359375 -0.09375l0 -1.53125q1.375 0 1.9375 -0.34375q0.5625 -0.34375 0.5625 -0.890625q0 -0.484375 -0.359375 -0.75q-0.359375 -0.28125 -1.015625 -0.28125q-0.546875 0 -1.015625 0.21875q-0.46875 0.21875 -0.953125 0.609375l-1.09375 -1.328125q0.6875 -0.5625 1.46875 -0.875q0.796875 -0.31248474 1.703125 -0.31248474q0.765625 0 1.390625 0.17185974q0.625 0.171875 1.078125 0.5q0.453125 0.328125 0.703125 0.796875q0.25 0.46875 0.25 1.078125q0 0.734375 -0.46875 1.25q-0.46875 0.5 -1.296875 0.828125l0 0.046875q0.875 0.234375 1.46875 0.8125q0.609375 0.5625 0.609375 1.46875q0 0.640625 -0.296875 1.15625q-0.296875 0.5 -0.8125 0.84375q-0.5 0.34375 -1.171875 0.53125q-0.671875 0.171875 -1.40625 0.171875z" fill-rule="nonzero"/><path fill="#eeeeee" d="m573.32806 421.46887l154.64044 0l0 49.683685l-154.64044 0z" fill-rule="evenodd"/><path fill="#000000" fill-opacity="0.0" d="m592.65814 421.46887l0 49.683685m-19.330078 -43.473206l154.64044 0" fill-rule="evenodd"/><path fill="#000000" fill-opacity="0.0" d="m573.32806 421.46887l154.64044 0l0 49.683685l-154.64044 0z" fill-rule="evenodd"/><path stroke="#595959" stroke-width="1.0" stroke-linejoin="round" stroke-linecap="butt" d="m592.65814 421.46887l0 49.683685m-19.330078 -43.473206l154.64044 0" fill-rule="evenodd"/><path stroke="#595959" stroke-width="1.0" stroke-linejoin="round" stroke-linecap="butt" d="m573.32806 421.46887l154.64044 0l0 49.683685l-154.64044 0z" fill-rule="evenodd"/><path fill="#000000" d="m606.04877 454.66782q-0.71875 0 -1.390625 -0.25q-0.65625 -0.265625 -1.1875 -0.734375q-0.515625 -0.484375 -0.828125 -1.1875q-0.296875 -0.71875 -0.296875 -1.640625q0 -0.90625 0.296875 -1.609375q0.3125 -0.71875 0.828125 -1.203125q0.53125 -0.484375 1.1875 -0.734375q0.671875 -0.265625 1.390625 -0.265625q0.71875 0 1.390625 0.265625q0.671875 0.25 1.1875 0.734375q0.515625 0.484375 0.828125 1.203125q0.3125 0.703125 0.3125 1.609375q0 0.921875 -0.3125 1.640625q-0.3125 0.703125 -0.828125 1.1875q-0.515625 0.46875 -1.1875 0.734375q-0.671875 0.25 -1.390625 0.25zm0 -1.734375q0.75 0 1.125 -0.5625q0.375 -0.5625 0.375 -1.515625q0 -0.953125 -0.375 -1.5q-0.375 -0.5625 -1.125 -0.5625q-0.734375 0 -1.109375 0.5625q-0.375 0.546875 -0.375 1.5q0 0.953125 0.375 1.515625q0.375 0.5625 1.109375 0.5625zm7.668762 1.734375q-1.25 0 -1.8125 -0.78125q-0.546875 -0.796875 -0.546875 -2.171875l0 -4.484375l2.15625 0l0 4.203125q0 0.734375 0.21875 1.078125q0.21875 0.328125 0.84375 0.328125q0.40625 0 0.71875 -0.171875q0.3125 -0.1875 0.703125 -0.65625l0 -4.78125l2.140625 0l0 7.265625l-1.75 0l-0.15625 -1.046875l-0.0625 0q-0.484375 0.5625 -1.078125 0.890625q-0.578125 0.328125 -1.375 0.328125zm11.215637 0q-0.859375 0 -1.46875 -0.234375q-0.59375 -0.234375 -0.96875 -0.640625q-0.375 -0.421875 -0.546875 -1.0q-0.15625 -0.59375 -0.15625 -1.3125l0 -2.5625l-1.828125 0l0 -1.609375l1.9375 -0.078125l0.28125 -2.234375l1.765625 0l0 2.234375l3.078125 0l0 1.6875l-3.078125 0l0 2.546875q0 0.828125 0.359375 1.171875q0.375 0.34375 1.1875 0.34375q0.40625 0 0.75 -0.0625q0.34375 -0.078125 0.6875 -0.1875l0.375 1.546875q-0.484375 0.140625 -1.0625 0.265625q-0.578125 0.125 -1.3125 0.125zm4.1688232 2.53125l0 -9.96875l1.75 0l0.15625 0.734375l0.046875 0q0.4375 -0.40625 1.015625 -0.65625q0.578125 -0.265625 1.15625 -0.265625q0.671875 0 1.21875 0.265625q0.546875 0.265625 0.921875 0.75q0.375 0.484375 0.578125 1.171875q0.203125 0.671875 0.203125 1.515625q0 0.9375 -0.265625 1.671875q-0.265625 0.71875 -0.703125 1.21875q-0.4375 0.5 -1.015625 0.765625q-0.5625 0.265625 -1.171875 0.265625q-1.0 0 -1.78125 -0.78125l-0.0625 0l0.09375 1.1875l0 2.125l-2.140625 0zm3.390625 -4.28125q0.625 0 1.03125 -0.5q0.40625 -0.515625 0.40625 -1.640625q0 -1.96875 -1.328125 -1.96875q-0.6875 0 -1.359375 0.671875l0 2.953125q0.3125 0.265625 0.640625 0.375q0.328125 0.109375 0.609375 0.109375zm7.606262 1.75q-1.25 0 -1.8125 -0.78125q-0.546875 -0.796875 -0.546875 -2.171875l0 -4.484375l2.15625 0l0 4.203125q0 0.734375 0.21875 1.078125q0.21875 0.328125 0.84375 0.328125q0.40625 0 0.71875 -0.171875q0.3125 -0.1875 0.703125 -0.65625l0 -4.78125l2.140625 0l0 7.265625l-1.75 0l-0.15625 -1.046875l-0.0625 0q-0.484375 0.5625 -1.078125 0.890625q-0.578125 0.328125 -1.375 0.328125zm11.215637 0q-0.859375 0 -1.46875 -0.234375q-0.59375 -0.234375 -0.96875 -0.640625q-0.375 -0.421875 -0.546875 -1.0q-0.15625 -0.59375 -0.15625 -1.3125l0 -2.5625l-1.828125 0l0 -1.609375l1.9375 -0.078125l0.28125 -2.234375l1.765625 0l0 2.234375l3.078125 0l0 1.6875l-3.078125 0l0 2.546875q0 0.828125 0.359375 1.171875q0.375 0.34375 1.1875 0.34375q0.40625 0 0.75 -0.0625q0.34375 -0.078125 0.6875 -0.1875l0.375 1.546875q-0.484375 0.140625 -1.0625 0.265625q-0.578125 0.125 -1.3125 0.125zm3.9812622 2.234375l0 -1.609375l7.046875 0l0 1.609375l-7.046875 0zm8.793823 0l0 -1.609375l7.046875 0l0 1.609375l-7.046875 0zm13.137512 -2.234375q-0.890625 0 -1.703125 -0.3125q-0.796875 -0.3125 -1.40625 -0.921875q-0.59375 -0.625 -0.953125 -1.53125q-0.359375 -0.921875 -0.359375 -2.125q0 -1.1875 0.34375 -2.109375q0.359375 -0.9375 0.96875 -1.578125q0.609375 -0.65625 1.4375 -0.984375q0.84375 -0.34375 1.796875 -0.34375q0.921875 0 1.640625 0.375q0.734375 0.375 1.21875 0.84375l-1.1875 1.328125q-0.328125 -0.296875 -0.734375 -0.484375q-0.40625 -0.203125 -0.9375 -0.203125q-0.5 0 -0.9375 0.21875q-0.421875 0.203125 -0.734375 0.609375q-0.3125 0.390625 -0.5 0.96875q-0.171875 0.5625 -0.171875 1.28125q0 1.484375 0.671875 2.296875q0.6875 0.8125 1.765625 0.8125q0.515625 0 0.9375 -0.234375q0.4375 -0.234375 0.796875 -0.609375l1.1875 1.296875q-1.1875 1.40625 -3.140625 1.40625zm4.637512 -0.171875l0 -10.28125l2.140625 0l0 2.53125l-0.109375 1.390625l0.046875 0q0.40625 -0.421875 0.984375 -0.75q0.59375 -0.34375 1.4375 -0.34375q1.21875 0 1.78125 0.796875q0.578125 0.796875 0.578125 2.171875l0 4.484375l-2.15625 0l0 -4.203125q0 -0.734375 -0.234375 -1.0625q-0.234375 -0.34375 -0.84375 -0.34375q-0.4375 0 -0.765625 0.1875q-0.328125 0.1875 -0.71875 0.578125l0 4.84375l-2.140625 0zm9.434387 0l0 -7.265625l1.75 0l0.1875 1.578125l0.03125 0q0.546875 -0.890625 1.3125 -1.328125q0.765625 -0.4375 1.640625 -0.4375q0.484375 0 0.78125 0.078125q0.296875 0.078125 0.625 0.21875l-0.4375 1.8125q-0.34375 -0.109375 -0.609375 -0.15625q-0.265625 -0.0625 -0.6875 -0.0625q-0.671875 0 -1.328125 0.40625q-0.640625 0.390625 -1.109375 1.375l0 3.78125l-2.15625 0zm10.403198 0l0 -3.21875l-3.078125 -6.34375l2.3125 0l0.96875 2.3125q0.203125 0.546875 0.421875 1.078125q0.21875 0.53125 0.4375 1.09375l0.0625 0q0.234375 -0.5625 0.453125 -1.09375q0.21875 -0.53125 0.4375 -1.078125l0.96875 -2.3125l2.265625 0l-3.078125 6.34375l0 3.21875l-2.171875 0z" fill-rule="nonzero"/><path fill="#eeeeee" d="m573.32806 337.1998l154.64044 0l0 71.26126l-154.64044 0z" fill-rule="evenodd"/><path fill="#000000" fill-opacity="0.0" d="m592.65814 337.1998l0 71.26126m-19.330078 -62.353607l154.64044 0" fill-rule="evenodd"/><path fill="#000000" fill-opacity="0.0" d="m573.32806 337.1998l154.64044 0l0 71.26126l-154.64044 0z" fill-rule="evenodd"/><path stroke="#595959" stroke-width="1.0" stroke-linejoin="round" stroke-linecap="butt" d="m592.65814 337.1998l0 71.26126m-19.330078 -62.353607l154.64044 0" fill-rule="evenodd"/><path stroke="#595959" stroke-width="1.0" stroke-linejoin="round" stroke-linecap="butt" d="m573.32806 337.1998l154.64044 0l0 71.26126l-154.64044 0z" fill-rule="evenodd"/><path fill="#000000" d="m606.04877 382.53613q-0.71875 0 -1.390625 -0.25q-0.65625 -0.265625 -1.1875 -0.734375q-0.515625 -0.484375 -0.828125 -1.1875q-0.296875 -0.71875 -0.296875 -1.640625q0 -0.90625 0.296875 -1.609375q0.3125 -0.71875 0.828125 -1.203125q0.53125 -0.484375 1.1875 -0.734375q0.671875 -0.265625 1.390625 -0.265625q0.71875 0 1.390625 0.265625q0.671875 0.25 1.1875 0.734375q0.515625 0.484375 0.828125 1.203125q0.3125 0.703125 0.3125 1.609375q0 0.921875 -0.3125 1.640625q-0.3125 0.703125 -0.828125 1.1875q-0.515625 0.46875 -1.1875 0.734375q-0.671875 0.25 -1.390625 0.25zm0 -1.734375q0.75 0 1.125 -0.5625q0.375 -0.5625 0.375 -1.515625q0 -0.953125 -0.375 -1.5q-0.375 -0.5625 -1.125 -0.5625q-0.734375 0 -1.109375 0.5625q-0.375 0.546875 -0.375 1.5q0 0.953125 0.375 1.515625q0.375 0.5625 1.109375 0.5625zm7.668762 1.734375q-1.25 0 -1.8125 -0.78125q-0.546875 -0.796875 -0.546875 -2.171875l0 -4.484375l2.15625 0l0 4.203125q0 0.734375 0.21875 1.078125q0.21875 0.328125 0.84375 0.328125q0.40625 0 0.71875 -0.171875q0.3125 -0.1875 0.703125 -0.65625l0 -4.78125l2.140625 0l0 7.265625l-1.75 0l-0.15625 -1.046875l-0.0625 0q-0.484375 0.5625 -1.078125 0.890625q-0.578125 0.328125 -1.375 0.328125zm11.215637 0q-0.859375 0 -1.46875 -0.234375q-0.59375 -0.234375 -0.96875 -0.640625q-0.375 -0.421875 -0.546875 -1.0q-0.15625 -0.59375 -0.15625 -1.3125l0 -2.5625l-1.828125 0l0 -1.609375l1.9375 -0.078125l0.28125 -2.234375l1.765625 0l0 2.234375l3.078125 0l0 1.6875l-3.078125 0l0 2.546875q0 0.828125 0.359375 1.171875q0.375 0.34375 1.1875 0.34375q0.40625 0 0.75 -0.0625q0.34375 -0.078125 0.6875 -0.1875l0.375 1.546875q-0.484375 0.140625 -1.0625 0.265625q-0.578125 0.125 -1.3125 0.125zm4.1688232 2.53125l0 -9.96875l1.75 0l0.15625 0.734375l0.046875 0q0.4375 -0.40625 1.015625 -0.65625q0.578125 -0.265625 1.15625 -0.265625q0.671875 0 1.21875 0.265625q0.546875 0.265625 0.921875 0.75q0.375 0.484375 0.578125 1.171875q0.203125 0.671875 0.203125 1.515625q0 0.9375 -0.265625 1.671875q-0.265625 0.71875 -0.703125 1.21875q-0.4375 0.5 -1.015625 0.765625q-0.5625 0.265625 -1.171875 0.265625q-1.0 0 -1.78125 -0.78125l-0.0625 0l0.09375 1.1875l0 2.125l-2.140625 0zm3.390625 -4.28125q0.625 0 1.03125 -0.5q0.40625 -0.515625 0.40625 -1.640625q0 -1.96875 -1.328125 -1.96875q-0.6875 0 -1.359375 0.671875l0 2.953125q0.3125 0.265625 0.640625 0.375q0.328125 0.109375 0.609375 0.109375zm7.606262 1.75q-1.25 0 -1.8125 -0.78125q-0.546875 -0.796875 -0.546875 -2.171875l0 -4.484375l2.15625 0l0 4.203125q0 0.734375 0.21875 1.078125q0.21875 0.328125 0.84375 0.328125q0.40625 0 0.71875 -0.171875q0.3125 -0.1875 0.703125 -0.65625l0 -4.78125l2.140625 0l0 7.265625l-1.75 0l-0.15625 -1.046875l-0.0625 0q-0.484375 0.5625 -1.078125 0.890625q-0.578125 0.328125 -1.375 0.328125zm11.215637 0q-0.859375 0 -1.46875 -0.234375q-0.59375 -0.234375 -0.96875 -0.640625q-0.375 -0.421875 -0.546875 -1.0q-0.15625 -0.59375 -0.15625 -1.3125l0 -2.5625l-1.828125 0l0 -1.609375l1.9375 -0.078125l0.28125 -2.234375l1.765625 0l0 2.234375l3.078125 0l0 1.6875l-3.078125 0l0 2.546875q0 0.828125 0.359375 1.171875q0.375 0.34375 1.1875 0.34375q0.40625 0 0.75 -0.0625q0.34375 -0.078125 0.6875 -0.1875l0.375 1.546875q-0.484375 0.140625 -1.0625 0.265625q-0.578125 0.125 -1.3125 0.125zm3.9812622 2.234375l0 -1.609375l7.046875 0l0 1.609375l-7.046875 0zm8.793823 0l0 -1.609375l7.046875 0l0 1.609375l-7.046875 0zm13.137512 -2.234375q-0.890625 0 -1.703125 -0.3125q-0.796875 -0.3125 -1.40625 -0.921875q-0.59375 -0.625 -0.953125 -1.53125q-0.359375 -0.921875 -0.359375 -2.125q0 -1.1875 0.34375 -2.109375q0.359375 -0.9375 0.96875 -1.578125q0.609375 -0.65625 1.4375 -0.984375q0.84375 -0.34375 1.796875 -0.34375q0.921875 0 1.640625 0.375q0.734375 0.375 1.21875 0.84375l-1.1875 1.328125q-0.328125 -0.296875 -0.734375 -0.484375q-0.40625 -0.203125 -0.9375 -0.203125q-0.5 0 -0.9375 0.21875q-0.421875 0.203125 -0.734375 0.609375q-0.3125 0.390625 -0.5 0.96875q-0.171875 0.5625 -0.171875 1.28125q0 1.484375 0.671875 2.296875q0.6875 0.8125 1.765625 0.8125q0.515625 0 0.9375 -0.234375q0.4375 -0.234375 0.796875 -0.609375l1.1875 1.296875q-1.1875 1.40625 -3.140625 1.40625zm4.637512 -0.171875l0 -10.28125l2.140625 0l0 2.53125l-0.109375 1.390625l0.046875 0q0.40625 -0.421875 0.984375 -0.75q0.59375 -0.34375 1.4375 -0.34375q1.21875 0 1.78125 0.796875q0.578125 0.796875 0.578125 2.171875l0 4.484375l-2.15625 0l0 -4.203125q0 -0.734375 -0.234375 -1.0625q-0.234375 -0.34375 -0.84375 -0.34375q-0.4375 0 -0.765625 0.1875q-0.328125 0.1875 -0.71875 0.578125l0 4.84375l-2.140625 0zm9.434387 0l0 -7.265625l1.75 0l0.1875 1.578125l0.03125 0q0.546875 -0.890625 1.3125 -1.328125q0.765625 -0.4375 1.640625 -0.4375q0.484375 0 0.78125 0.078125q0.296875 0.078125 0.625 0.21875l-0.4375 1.8125q-0.34375 -0.109375 -0.609375 -0.15625q-0.265625 -0.0625 -0.6875 -0.0625q-0.671875 0 -1.328125 0.40625q-0.640625 0.390625 -1.109375 1.375l0 3.78125l-2.15625 0zm7.3563232 0l2.78125 -4.90625l-2.625 -4.65625l2.421875 0l0.921875 1.8125q0.15625 0.328125 0.328125 0.703125q0.1875 0.375 0.40625 0.828125l0.0625 0q0.171875 -0.453125 0.328125 -0.828125q0.15625 -0.375 0.3125 -0.703125l0.84375 -1.8125l2.328125 0l-2.625 4.75l2.78125 4.8125l-2.40625 0l-1.046875 -1.953125q-0.203125 -0.375 -0.375 -0.75q-0.171875 -0.375 -0.375 -0.8125l-0.0625 0q-0.171875 0.4375 -0.359375 0.8125q-0.171875 0.375 -0.34375 0.75l-1.0 1.953125l-2.296875 0z" fill-rule="nonzero"/><path fill="#000000" fill-opacity="0.0" d="m505.17844 266.63254l68.1575 -205.63779" fill-rule="evenodd"/><path stroke="#595959" stroke-width="1.0" stroke-linejoin="round" stroke-linecap="butt" d="m505.17844 266.63254l66.269806 -199.94247" fill-rule="evenodd"/><path fill="#595959" stroke="#595959" stroke-width="1.0" stroke-linecap="butt" d="m573.0161 67.209724l-0.14013672 -4.8273087l-2.9956055 3.7879944z" fill-rule="evenodd"/><path fill="#000000" fill-opacity="0.0" d="m505.17844 266.63254l68.1575 -101.79527" fill-rule="evenodd"/><path stroke="#595959" stroke-width="1.0" stroke-linejoin="round" stroke-linecap="butt" d="m505.17844 266.63254l64.819305 -96.809616" fill-rule="evenodd"/><path fill="#595959" stroke="#595959" stroke-width="1.0" stroke-linecap="butt" d="m571.37024 170.74188l1.1523438 -4.68985l-3.8973389 2.8519287z" fill-rule="evenodd"/><path fill="#000000" fill-opacity="0.0" d="m505.17844 266.63254l68.1575 -10.708649" fill-rule="evenodd"/><path stroke="#595959" stroke-width="1.0" stroke-linejoin="round" stroke-linecap="butt" d="m505.17844 266.63254l62.230194 -9.777374" fill-rule="evenodd"/><path fill="#595959" stroke="#595959" stroke-width="1.0" stroke-linecap="butt" d="m567.665 258.48688l4.2267456 -2.33609l-4.739441 -0.92733765z" fill-rule="evenodd"/><path fill="#000000" fill-opacity="0.0" d="m505.17844 266.63254l68.1575 179.68506" fill-rule="evenodd"/><path stroke="#595959" stroke-width="1.0" stroke-linejoin="round" stroke-linecap="butt" d="m505.17844 266.63254l66.02951 174.07504" fill-rule="evenodd"/><path fill="#595959" stroke="#595959" stroke-width="1.0" stroke-linecap="butt" d="m569.6636 441.29343l3.1538696 3.6572876l-0.06512451 -4.8289185z" fill-rule="evenodd"/><path fill="#000000" fill-opacity="0.0" d="m505.17844 266.63254l68.1575 106.20474" fill-rule="evenodd"/><path stroke="#595959" stroke-width="1.0" stroke-linejoin="round" stroke-linecap="butt" d="m505.17844 266.63254l64.9169 101.15515" fill-rule="evenodd"/><path fill="#595959" stroke="#595959" stroke-width="1.0" stroke-linecap="butt" d="m568.7052 368.67978l3.8411255 2.9271545l-1.0609131 -4.7113647z" fill-rule="evenodd"/><path fill="#000000" fill-opacity="0.0" d="m600.29724 276.29517l108.15747 0l0 58.551178l-108.15747 0z" fill-rule="evenodd"/><path fill="#000000" d="m635.1697 316.4058q-1.078125 0 -1.828125 -0.734375q-0.75 -0.75 -0.75 -1.953125q0 -1.21875 0.75 -1.96875q0.75 -0.765625 1.828125 -0.765625q1.09375 0 1.84375 0.765625q0.75 0.75 0.75 1.96875q0 1.203125 -0.75 1.953125q-0.75 0.734375 -1.84375 0.734375zm19.200012 0q-1.078125 0 -1.828125 -0.734375q-0.75 -0.75 -0.75 -1.953125q0 -1.21875 0.75 -1.96875q0.75 -0.765625 1.828125 -0.765625q1.09375 0 1.84375 0.765625q0.75 0.75 0.75 1.96875q0 1.203125 -0.75 1.953125q-0.75 0.734375 -1.84375 0.734375zm19.200073 0q-1.078125 0 -1.828125 -0.734375q-0.75 -0.75 -0.75 -1.953125q0 -1.21875 0.75 -1.96875q0.75 -0.765625 1.828125 -0.765625q1.09375 0 1.84375 0.765625q0.75 0.75 0.75 1.96875q0 1.203125 -0.75 1.953125q-0.75 0.734375 -1.84375 0.734375z" fill-rule="nonzero"/><path fill="#eeeeee" d="m573.32806 484.1596l154.64044 0l0 36.819397l-154.64044 0z" fill-rule="evenodd"/><path fill="#000000" fill-opacity="0.0" d="m592.65814 484.1596l0 36.819397m-19.330078 -32.21698l154.64044 0" fill-rule="evenodd"/><path fill="#000000" fill-opacity="0.0" d="m573.32806 484.1596l154.64044 0l0 36.819397l-154.64044 0z" fill-rule="evenodd"/><path stroke="#595959" stroke-width="1.0" stroke-linejoin="round" stroke-linecap="butt" d="m592.65814 484.1596l0 36.819397m-19.330078 -32.21698l154.64044 0" fill-rule="evenodd"/><path stroke="#595959" stroke-width="1.0" stroke-linejoin="round" stroke-linecap="butt" d="m573.32806 484.1596l154.64044 0l0 36.819397l-154.64044 0z" fill-rule="evenodd"/><path fill="#000000" d="m605.2519 509.53116q-0.578125 0 -1.125 -0.203125q-0.546875 -0.21875 -0.984375 -0.609375q-0.421875 -0.390625 -0.671875 -0.96875q-0.25 -0.59375 -0.25 -1.328125q0 -0.75 0.25 -1.328125q0.25 -0.59375 0.671875 -0.984375q0.4375 -0.390625 0.984375 -0.59375q0.546875 -0.21875 1.125 -0.21875q0.59375 0 1.140625 0.21875q0.546875 0.203125 0.96875 0.59375q0.421875 0.390625 0.671875 0.984375q0.265625 0.578125 0.265625 1.328125q0 0.734375 -0.265625 1.328125q-0.25 0.578125 -0.671875 0.96875q-0.421875 0.390625 -0.96875 0.609375q-0.546875 0.203125 -1.140625 0.203125zm0 -1.421875q0.625 0 0.921875 -0.453125q0.3125 -0.46875 0.3125 -1.234375q0 -0.78125 -0.3125 -1.234375q-0.296875 -0.46875 -0.921875 -0.46875q-0.609375 0 -0.921875 0.46875q-0.296875 0.453125 -0.296875 1.234375q0 0.765625 0.296875 1.234375q0.3125 0.453125 0.921875 0.453125zm6.2781982 1.421875q-1.015625 0 -1.46875 -0.640625q-0.453125 -0.65625 -0.453125 -1.78125l0 -3.671875l1.765625 0l0 3.4375q0 0.609375 0.171875 0.890625q0.1875 0.265625 0.6875 0.265625q0.328125 0 0.578125 -0.140625q0.265625 -0.140625 0.578125 -0.546875l0 -3.90625l1.765625 0l0 5.953125l-1.4375 0l-0.125 -0.859375l-0.046875 0q-0.40625 0.46875 -0.890625 0.734375q-0.46875 0.265625 -1.125 0.265625zm9.184387 0q-0.703125 0 -1.203125 -0.1875q-0.484375 -0.1875 -0.796875 -0.53125q-0.296875 -0.34375 -0.4375 -0.828125q-0.125 -0.484375 -0.125 -1.0625l0 -2.109375l-1.5 0l0 -1.296875l1.578125 -0.078125l0.234375 -1.828125l1.453125 0l0 1.828125l2.515625 0l0 1.375l-2.515625 0l0 2.09375q0 0.6875 0.296875 0.96875q0.296875 0.28125 0.953125 0.28125q0.34375 0 0.625 -0.0625q0.28125 -0.0625 0.546875 -0.15625l0.3125 1.265625q-0.390625 0.125 -0.875 0.21875q-0.46875 0.109375 -1.0625 0.109375zm3.4031982 2.0625l0 -8.15625l1.4375 0l0.140625 0.59375l0.03125 0q0.359375 -0.3125 0.828125 -0.515625q0.46875 -0.21875 0.953125 -0.21875q0.546875 0 0.984375 0.21875q0.453125 0.21875 0.765625 0.609375q0.3125 0.390625 0.46875 0.953125q0.171875 0.5625 0.171875 1.234375q0 0.78125 -0.21875 1.375q-0.21875 0.59375 -0.578125 1.015625q-0.359375 0.40625 -0.828125 0.625q-0.453125 0.203125 -0.953125 0.203125q-0.828125 0 -1.46875 -0.640625l-0.046875 0l0.078125 0.96875l0 1.734375l-1.765625 0zm2.78125 -3.5q0.515625 0 0.84375 -0.40625q0.34375 -0.421875 0.34375 -1.34375q0 -1.609375 -1.09375 -1.609375q-0.5625 0 -1.109375 0.546875l0 2.421875q0.25 0.21875 0.515625 0.3125q0.28125 0.078125 0.5 0.078125zm6.2313232 1.4375q-1.015625 0 -1.46875 -0.640625q-0.453125 -0.65625 -0.453125 -1.78125l0 -3.671875l1.765625 0l0 3.4375q0 0.609375 0.171875 0.890625q0.1875 0.265625 0.6875 0.265625q0.328125 0 0.578125 -0.140625q0.265625 -0.140625 0.578125 -0.546875l0 -3.90625l1.765625 0l0 5.953125l-1.4375 0l-0.125 -0.859375l-0.046875 0q-0.40625 0.46875 -0.890625 0.734375q-0.46875 0.265625 -1.125 0.265625zm9.184448 0q-0.703125 0 -1.203125 -0.1875q-0.484375 -0.1875 -0.796875 -0.53125q-0.296875 -0.34375 -0.4375 -0.828125q-0.125 -0.484375 -0.125 -1.0625l0 -2.109375l-1.5 0l0 -1.296875l1.578125 -0.078125l0.234375 -1.828125l1.453125 0l0 1.828125l2.515625 0l0 1.375l-2.515625 0l0 2.09375q0 0.6875 0.296875 0.96875q0.296875 0.28125 0.953125 0.28125q0.34375 0 0.625 -0.0625q0.28125 -0.0625 0.546875 -0.15625l0.3125 1.265625q-0.390625 0.125 -0.875 0.21875q-0.46875 0.109375 -1.0625 0.109375zm3.2625122 1.828125l0 -1.328125l5.765625 0l0 1.328125l-5.765625 0zm7.2000732 0l0 -1.328125l5.765625 0l0 1.328125l-5.765625 0zm7.8719482 -1.96875l0 -5.953125l1.4375 0l0.140625 1.296875l0.046875 0q0.4375 -0.734375 1.0625 -1.078125q0.625 -0.359375 1.34375 -0.359375q0.390625 0 0.640625 0.0625q0.25 0.0625 0.515625 0.171875l-0.359375 1.484375q-0.28125 -0.09375 -0.5 -0.125q-0.21875 -0.046875 -0.5625 -0.046875q-0.546875 0 -1.078125 0.328125q-0.53125 0.3125 -0.921875 1.125l0 3.09375l-1.765625 0zm9.762573 0.140625q-0.6875 0 -1.296875 -0.203125q-0.609375 -0.21875 -1.0625 -0.609375q-0.4375 -0.390625 -0.6875 -0.96875q-0.25 -0.59375 -0.25 -1.328125q0 -0.734375 0.25 -1.3125q0.265625 -0.59375 0.703125 -0.984375q0.4375 -0.40625 0.984375 -0.609375q0.5625 -0.21875 1.15625 -0.21875q0.6875 0 1.21875 0.21875q0.53125 0.21875 0.875 0.609375q0.359375 0.375 0.53125 0.890625q0.1875 0.515625 0.1875 1.140625q0 0.234375 -0.03125 0.453125q-0.03125 0.21875 -0.046875 0.328125l-4.0625 0q0.140625 0.65625 0.59375 0.953125q0.453125 0.296875 1.1875 0.296875q0.40625 0 0.765625 -0.109375q0.375 -0.109375 0.765625 -0.3125l0.59375 1.078125q-0.515625 0.3125 -1.140625 0.5q-0.625 0.1875 -1.234375 0.1875zm-0.140625 -4.890625q-0.53125 0 -0.890625 0.28125q-0.34375 0.265625 -0.46875 0.828125l2.53125 0q-0.125 -1.109375 -1.171875 -1.109375zm6.934387 4.890625q-0.796875 0 -1.5625 -0.265625q-0.765625 -0.265625 -1.34375 -0.640625l0.75 -1.109375q0.546875 0.34375 1.140625 0.53125q0.609375 0.1875 1.265625 0.1875q0.484375 0 0.703125 -0.140625q0.234375 -0.15625 0.234375 -0.375q0 -0.109375 -0.0625 -0.203125q-0.0625 -0.109375 -0.234375 -0.1875q-0.15625 -0.078125 -0.453125 -0.140625q-0.28125 -0.078125 -0.703125 -0.171875q-1.21875 -0.265625 -1.75 -0.71875q-0.515625 -0.453125 -0.515625 -1.140625q0 -0.40625 0.1875 -0.75q0.1875 -0.359375 0.53125 -0.59375q0.359375 -0.234375 0.859375 -0.375q0.515625 -0.140625 1.15625 -0.140625q0.796875 0 1.453125 0.265625q0.65625 0.25 1.125 0.546875l-0.796875 1.0625q-0.453125 -0.28125 -0.953125 -0.421875q-0.484375 -0.140625 -0.984375 -0.140625q-0.421875 0 -0.625 0.125q-0.203125 0.125 -0.203125 0.34375q0 0.25 0.3125 0.359375q0.3125 0.09375 1.0625 0.265625q0.6875 0.15625 1.140625 0.34375q0.453125 0.171875 0.71875 0.40625q0.265625 0.21875 0.375 0.515625q0.109375 0.28125 0.109375 0.640625q0 0.40625 -0.203125 0.765625q-0.1875 0.34375 -0.5625 0.609375q-0.359375 0.25 -0.90625 0.40625q-0.546875 0.140625 -1.265625 0.140625zm6.9969482 -0.140625l0 -4.578125l-2.390625 0l0 -1.375l4.140625 0l0 5.953125l-1.75 0zm1.25 -6.890625q-0.515625 0 -0.84375 -0.28125q-0.328125 -0.296875 -0.328125 -0.78125q0 -0.5 0.328125 -0.796875q0.328125 -0.3125 0.84375 -0.3125q0.515625 0 0.84375 0.3125q0.34375 0.296875 0.34375 0.796875q0 0.484375 -0.34375 0.78125q-0.328125 0.28125 -0.84375 0.28125zm5.6844482 7.03125q-0.5625 0 -1.03125 -0.203125q-0.46875 -0.21875 -0.796875 -0.625q-0.328125 -0.40625 -0.515625 -0.984375q-0.171875 -0.578125 -0.171875 -1.296875q0 -0.734375 0.21875 -1.3125q0.21875 -0.578125 0.5625 -0.96875q0.359375 -0.40625 0.8125 -0.625q0.453125 -0.21875 0.953125 -0.21875q0.5 0 0.84375 0.171875q0.359375 0.15625 0.65625 0.46875l0.046875 0l-0.078125 -0.9375l0 -2.015625l1.765625 0l0 8.40625l-1.453125 0l-0.125 -0.609375l-0.03125 0q-0.34375 0.328125 -0.78125 0.546875q-0.421875 0.203125 -0.875 0.203125zm0.453125 -1.4375q0.296875 0 0.546875 -0.125q0.25 -0.125 0.5 -0.421875l0 -2.421875q-0.25 -0.203125 -0.5 -0.296875q-0.234375 -0.09375 -0.5 -0.09375q-0.5 0 -0.859375 0.40625q-0.34375 0.40625 -0.34375 1.25q0 0.890625 0.296875 1.296875q0.296875 0.40625 0.859375 0.40625zm6.3406982 1.4375q-1.015625 0 -1.46875 -0.640625q-0.453125 -0.65625 -0.453125 -1.78125l0 -3.671875l1.765625 0l0 3.4375q0 0.609375 0.171875 0.890625q0.1875 0.265625 0.6875 0.265625q0.328125 0 0.578125 -0.140625q0.265625 -0.140625 0.578125 -0.546875l0 -3.90625l1.765625 0l0 5.953125l-1.4375 0l-0.125 -0.859375l-0.046875 0q-0.40625 0.46875 -0.890625 0.734375q-0.46875 0.265625 -1.125 0.265625zm7.215637 0q-0.453125 0 -0.8125 -0.140625q-0.359375 -0.125 -0.609375 -0.375q-0.25 -0.25 -0.390625 -0.5625q-0.140625 -0.328125 -0.140625 -0.71875q0 -0.5 0.203125 -0.875q0.21875 -0.390625 0.6875 -0.640625q0.484375 -0.265625 1.21875 -0.421875q0.75 -0.171875 1.8125 -0.234375q-0.046875 -0.40625 -0.359375 -0.625q-0.296875 -0.234375 -0.90625 -0.234375q-0.4375 0 -0.875 0.15625q-0.4375 0.140625 -0.9375 0.390625l-0.625 -1.15625q0.609375 -0.34375 1.3125 -0.5625q0.703125 -0.234375 1.46875 -0.234375q1.25 0 1.96875 0.65625q0.71875 0.65625 0.71875 2.03125l0 3.40625l-1.4375 0l-0.140625 -0.671875l-0.046875 0q-0.453125 0.34375 -1.0 0.578125q-0.53125 0.234375 -1.109375 0.234375zm0.5625 -1.359375q0.390625 0 0.734375 -0.15625q0.359375 -0.171875 0.671875 -0.40625l0 -0.984375q-0.65625 0.03125 -1.09375 0.125q-0.4375 0.078125 -0.6875 0.203125q-0.25 0.125 -0.359375 0.296875q-0.09375 0.15625 -0.09375 0.359375q0 0.28125 0.21875 0.421875q0.234375 0.140625 0.609375 0.140625zm8.684448 1.359375q-1.125 0 -1.703125 -0.65625q-0.5625 -0.671875 -0.5625 -1.8125l0 -4.6875l-1.875 0l0 -1.390625l3.640625 0l0 6.15625q0 0.265625 0.078125 0.453125q0.078125 0.1875 0.21875 0.3125q0.140625 0.109375 0.3125 0.15625q0.171875 0.046875 0.359375 0.046875q0.203125 0 0.421875 -0.046875q0.234375 -0.046875 0.5 -0.140625l0.40625 1.28125q-0.25 0.078125 -0.453125 0.140625q-0.203125 0.0625 -0.40625 0.09375q-0.203125 0.046875 -0.4375 0.0625q-0.21875 0.03125 -0.5 0.03125z" fill-rule="nonzero"/><path fill="#000000" fill-opacity="0.0" d="m505.17844 266.63254l68.1575 235.93701" fill-rule="evenodd"/><path stroke="#595959" stroke-width="1.0" stroke-linejoin="round" stroke-linecap="butt" d="m505.17844 266.63254l66.49228 230.1727" fill-rule="evenodd"/><path fill="#595959" stroke="#595959" stroke-width="1.0" stroke-linecap="butt" d="m570.08386 497.26367l2.8463135 3.9013977l0.32739258 -4.8182373z" fill-rule="evenodd"/><path fill="#000000" fill-opacity="0.0" d="m375.32535 60.992107l87.33859 0l0 89.726746l-14.556732 14.556717l-72.78186 0z" fill-rule="evenodd"/><path fill="#000000" fill-opacity="0.0" d="m448.1072 165.27557l2.9113464 -11.645386l11.645386 -2.9113312z" fill-rule="evenodd"/><path fill="#000000" fill-opacity="0.0" d="m448.1072 165.27557l2.9113464 -11.645386l11.645386 -2.9113312l-14.556732 14.556717l-72.78186 0l0 -104.28346l87.33859 0l0 89.726746" fill-rule="evenodd"/><path fill="#000000" fill-opacity="0.2" d="m448.1072 165.27557l2.9113464 -11.645386l11.645386 -2.9113312z" fill-rule="evenodd"/><path stroke="#595959" stroke-width="1.0" stroke-linejoin="round" stroke-linecap="butt" d="m448.1072 165.27557l2.9113464 -11.645386l11.645386 -2.9113312l-14.556732 14.556717l-72.78186 0l0 -104.28346l87.33859 0l0 89.726746" fill-rule="evenodd"/><path fill="#000000" d="m384.9816 98.56048l1.3125 -0.109375q0.09375 0.78125 0.421875 1.296875q0.34375 0.5 1.0625 0.8125q0.71875 0.3125 1.609375 0.3125q0.796875 0 1.40625 -0.234375q0.609375 -0.234375 0.90625 -0.640625q0.296875 -0.421875 0.296875 -0.90625q0 -0.5 -0.296875 -0.859375q-0.28125 -0.375 -0.9375 -0.625q-0.421875 -0.171875 -1.875 -0.515625q-1.4375 -0.34375 -2.015625 -0.65625q-0.75 -0.390625 -1.125 -0.96875q-0.359375 -0.59375 -0.359375 -1.3125q0 -0.796875 0.4375 -1.484375q0.453125 -0.6875 1.3125 -1.046875q0.875 -0.359375 1.9375 -0.359375q1.171875 0 2.0625 0.375q0.890625 0.375 1.359375 1.109375q0.484375 0.734375 0.515625 1.65625l-1.328125 0.09375q-0.109375 -1.0 -0.734375 -1.5q-0.609375 -0.515625 -1.8125 -0.515625q-1.265625 0 -1.84375 0.46875q-0.578125 0.46875 -0.578125 1.109375q0 0.5625 0.421875 0.9375q0.390625 0.359375 2.078125 0.75q1.703125 0.375 2.328125 0.65625q0.921875 0.421875 1.359375 1.078125q0.4375 0.640625 0.4375 1.484375q0 0.84375 -0.484375 1.59375q-0.484375 0.734375 -1.390625 1.140625q-0.890625 0.40625 -2.015625 0.40625q-1.421875 0 -2.390625 -0.40625q-0.953125 -0.421875 -1.5 -1.25q-0.546875 -0.828125 -0.578125 -1.890625zm10.088104 3.375l0 -10.484375l1.28125 0l0 3.75q0.90625 -1.03125 2.28125 -1.03125q0.84375 0 1.46875 0.328125q0.625 0.328125 0.890625 0.921875q0.265625 0.578125 0.265625 1.703125l0 4.8125l-1.28125 0l0 -4.8125q0 -0.96875 -0.421875 -1.40625q-0.421875 -0.4375 -1.1875 -0.4375q-0.578125 0 -1.078125 0.296875q-0.5 0.296875 -0.71875 0.8125q-0.21875 0.5 -0.21875 1.390625l0 4.15625l-1.28125 0zm13.104248 -0.9375q-0.71875 0.609375 -1.375 0.859375q-0.65625 0.25 -1.421875 0.25q-1.25 0 -1.921875 -0.609375q-0.671875 -0.609375 -0.671875 -1.5625q0 -0.5625 0.25 -1.015625q0.25 -0.46875 0.65625 -0.75q0.421875 -0.28125 0.9375 -0.421875q0.375 -0.09375 1.140625 -0.1875q1.5625 -0.1875 2.296875 -0.453125q0.015625 -0.265625 0.015625 -0.328125q0 -0.796875 -0.375 -1.109375q-0.484375 -0.4375 -1.453125 -0.4375q-0.921875 0 -1.359375 0.328125q-0.421875 0.3125 -0.625 1.109375l-1.265625 -0.171875q0.171875 -0.796875 0.5625 -1.296875q0.390625 -0.5 1.140625 -0.765625q0.75 -0.265625 1.71875 -0.265625q0.984375 0 1.59375 0.234375q0.609375 0.21875 0.890625 0.5625q0.28125 0.34375 0.40625 0.875q0.0625 0.328125 0.0625 1.1875l0 1.71875q0 1.796875 0.078125 2.28125q0.078125 0.46875 0.328125 0.90625l-1.34375 0q-0.203125 -0.40625 -0.265625 -0.9375zm-0.109375 -2.875q-0.703125 0.28125 -2.09375 0.484375q-0.796875 0.109375 -1.125 0.265625q-0.328125 0.140625 -0.515625 0.421875q-0.171875 0.265625 -0.171875 0.59375q0 0.515625 0.390625 0.859375q0.390625 0.34375 1.140625 0.34375q0.734375 0 1.3125 -0.3125q0.59375 -0.328125 0.859375 -0.890625q0.203125 -0.4375 0.203125 -1.296875l0 -0.46875zm3.2917175 3.8125l0 -7.59375l1.15625 0l0 1.140625q0.453125 -0.796875 0.828125 -1.046875q0.375 -0.265625 0.8125 -0.265625q0.65625 0 1.328125 0.40625l-0.4375 1.203125q-0.46875 -0.28125 -0.953125 -0.28125q-0.421875 0 -0.765625 0.25q-0.328125 0.25 -0.46875 0.703125q-0.21875 0.6875 -0.21875 1.5l0 3.984375l-1.28125 0zm9.818146 0l0 -0.953125q-0.71875 1.125 -2.125 1.125q-0.90625 0 -1.671875 -0.5q-0.75 -0.5 -1.171875 -1.390625q-0.421875 -0.90625 -0.421875 -2.078125q0 -1.140625 0.375 -2.0625q0.390625 -0.921875 1.140625 -1.40625q0.765625 -0.5 1.703125 -0.5q0.6875 0 1.21875 0.296875q0.53125 0.28125 0.875 0.734375l0 -3.75l1.28125 0l0 10.484375l-1.203125 0zm-4.0625 -3.796875q0 1.46875 0.609375 2.1875q0.625 0.71875 1.453125 0.71875q0.84375 0 1.4375 -0.6875q0.59375 -0.6875 0.59375 -2.109375q0 -1.5625 -0.609375 -2.28125q-0.59375 -0.734375 -1.484375 -0.734375q-0.84375 0 -1.421875 0.703125q-0.578125 0.703125 -0.578125 2.203125zm7.291748 -5.21875l0 -1.46875l1.296875 0l0 1.46875l-1.296875 0zm0 9.015625l0 -7.59375l1.296875 0l0 7.59375l-1.296875 0zm3.256134 0l0 -7.59375l1.15625 0l0 1.078125q0.84375 -1.25 2.421875 -1.25q0.6875 0 1.265625 0.25q0.578125 0.234375 0.859375 0.640625q0.28125 0.40625 0.40625 0.953125q0.0625 0.359375 0.0625 1.25l0 4.671875l-1.28125 0l0 -4.625q0 -0.78125 -0.15625 -1.171875q-0.15625 -0.390625 -0.546875 -0.625q-0.375 -0.234375 -0.890625 -0.234375q-0.8125 0 -1.421875 0.53125q-0.59375 0.515625 -0.59375 1.96875l0 4.15625l-1.28125 0zm7.916748 0.625l1.25 0.1875q0.078125 0.578125 0.4375 0.84375q0.46875 0.359375 1.3125 0.359375q0.890625 0 1.375 -0.359375q0.484375 -0.359375 0.65625 -1.0q0.109375 -0.390625 0.09375 -1.65625q-0.84375 1.0 -2.109375 1.0q-1.5625 0 -2.421875 -1.125q-0.859375 -1.140625 -0.859375 -2.71875q0 -1.09375 0.390625 -2.0q0.40625 -0.921875 1.140625 -1.421875q0.75 -0.5 1.765625 -0.5q1.34375 0 2.21875 1.078125l0 -0.90625l1.1875 0l0 6.5625q0 1.78125 -0.359375 2.515625q-0.359375 0.734375 -1.15625 1.15625q-0.78125 0.4375 -1.921875 0.4375q-1.359375 0 -2.203125 -0.609375q-0.828125 -0.609375 -0.796875 -1.84375zm1.0625 -4.5625q0 1.5 0.59375 2.1875q0.59375 0.6875 1.484375 0.6875q0.890625 0 1.484375 -0.6875q0.609375 -0.6875 0.609375 -2.140625q0 -1.390625 -0.625 -2.09375q-0.609375 -0.71875 -1.484375 -0.71875q-0.859375 0 -1.46875 0.703125q-0.59375 0.6875 -0.59375 2.0625z" fill-rule="nonzero"/><path fill="#000000" d="m390.24722 117.154236l1.265625 0.15625q-0.203125 1.3125 -1.0625 2.0625q-0.84375 0.734375 -2.09375 0.734375q-1.5625 0 -2.515625 -1.015625q-0.9375 -1.03125 -0.9375 -2.921875q0 -1.234375 0.40625 -2.15625q0.40625 -0.921875 1.234375 -1.375q0.84375 -0.46875 1.8125 -0.46875q1.25 0 2.03125 0.625q0.78125 0.625 1.015625 1.765625l-1.265625 0.203125q-0.171875 -0.765625 -0.625 -1.15625q-0.453125 -0.390625 -1.09375 -0.390625q-0.984375 0 -1.59375 0.703125q-0.609375 0.703125 -0.609375 2.203125q0 1.53125 0.578125 2.234375q0.59375 0.6875 1.546875 0.6875q0.75 0 1.265625 -0.453125q0.515625 -0.46875 0.640625 -1.4375zm1.890625 -1.015625q0 -2.109375 1.171875 -3.125q0.984375 -0.84375 2.390625 -0.84375q1.578125 0 2.5625 1.03125q1.0 1.015625 1.0 2.828125q0 1.46875 -0.4375 2.3125q-0.4375 0.828125 -1.28125 1.296875q-0.84375 0.46875 -1.84375 0.46875q-1.59375 0 -2.578125 -1.015625q-0.984375 -1.03125 -0.984375 -2.953125zm1.328125 0q0 1.453125 0.625 2.1875q0.640625 0.71875 1.609375 0.71875q0.96875 0 1.59375 -0.71875q0.640625 -0.734375 0.640625 -2.234375q0 -1.40625 -0.640625 -2.125q-0.640625 -0.734375 -1.59375 -0.734375q-0.96875 0 -1.609375 0.71875q-0.625 0.71875 -0.625 2.1875zm7.307373 3.796875l0 -7.59375l1.15625 0l0 1.078125q0.84375 -1.25 2.421875 -1.25q0.6875 0 1.265625 0.25q0.578125 0.234375 0.859375 0.640625q0.28125 0.40625 0.40625 0.953125q0.0625 0.359375 0.0625 1.25l0 4.671875l-1.28125 0l0 -4.625q0 -0.78125 -0.15625 -1.171875q-0.15625 -0.390625 -0.546875 -0.625q-0.375 -0.234375 -0.890625 -0.234375q-0.8125 0 -1.421875 0.53125q-0.59375 0.515625 -0.59375 1.96875l0 4.15625l-1.28125 0zm8.463593 0l0 -6.59375l-1.140625 0l0 -1.0l1.140625 0l0 -0.8125q0 -0.765625 0.125 -1.140625q0.1875 -0.5 0.65625 -0.8125q0.46875 -0.3125 1.3125 -0.3125q0.546875 0 1.203125 0.125l-0.1875 1.125q-0.40625 -0.0625 -0.765625 -0.0625q-0.578125 0 -0.828125 0.25q-0.234375 0.25 -0.234375 0.9375l0 0.703125l1.46875 0l0 1.0l-1.46875 0l0 6.59375l-1.28125 0zm3.759491 -9.015625l0 -1.46875l1.296875 0l0 1.46875l-1.296875 0zm0 9.015625l0 -7.59375l1.296875 0l0 7.59375l-1.296875 0zm3.021759 0.625l1.25 0.1875q0.078125 0.578125 0.4375 0.84375q0.46875 0.359375 1.3125 0.359375q0.890625 0 1.375 -0.359375q0.484375 -0.359375 0.65625 -1.0q0.109375 -0.390625 0.09375 -1.65625q-0.84375 1.0 -2.109375 1.0q-1.5625 0 -2.421875 -1.125q-0.859375 -1.140625 -0.859375 -2.71875q0 -1.09375 0.390625 -2.0q0.40625 -0.921875 1.140625 -1.421875q0.75 -0.5 1.765625 -0.5q1.34375 0 2.21875 1.078125l0 -0.90625l1.1875 0l0 6.5625q0 1.78125 -0.359375 2.515625q-0.359375 0.734375 -1.15625 1.15625q-0.78125 0.4375 -1.921875 0.4375q-1.359375 0 -2.203125 -0.609375q-0.828125 -0.609375 -0.796875 -1.84375zm1.0625 -4.5625q0 1.5 0.59375 2.1875q0.59375 0.6875 1.484375 0.6875q0.890625 0 1.484375 -0.6875q0.609375 -0.6875 0.609375 -2.140625q0 -1.390625 -0.625 -2.09375q-0.609375 -0.71875 -1.484375 -0.71875q-0.859375 0 -1.46875 0.703125q-0.59375 0.6875 -0.59375 2.0625zm11.7074585 3.9375l0 -6.59375l-1.140625 0l0 -1.0l1.140625 0l0 -0.8125q0 -0.765625 0.125 -1.140625q0.1875 -0.5 0.65625 -0.8125q0.46875 -0.3125 1.3125 -0.3125q0.546875 0 1.203125 0.125l-0.1875 1.125q-0.40625 -0.0625 -0.765625 -0.0625q-0.578125 0 -0.828125 0.25q-0.234375 0.25 -0.234375 0.9375l0 0.703125l1.46875 0l0 1.0l-1.46875 0l0 6.59375l-1.28125 0zm3.759491 -9.015625l0 -1.46875l1.296875 0l0 1.46875l-1.296875 0zm0 9.015625l0 -7.59375l1.296875 0l0 7.59375l-1.296875 0zm3.224884 0l0 -10.484375l1.28125 0l0 10.484375l-1.28125 0zm8.49054 -2.453125l1.328125 0.171875q-0.3125 1.171875 -1.171875 1.8125q-0.84375 0.640625 -2.171875 0.640625q-1.671875 0 -2.65625 -1.015625q-0.96875 -1.03125 -0.96875 -2.890625q0 -1.921875 0.984375 -2.96875q1.0 -1.0625 2.578125 -1.0625q1.515625 0 2.484375 1.03125q0.96875 1.03125 0.96875 2.921875q0 0.109375 -0.015625 0.34375l-5.65625 0q0.0625 1.25 0.703125 1.921875q0.640625 0.65625 1.59375 0.65625q0.703125 0 1.203125 -0.359375q0.5 -0.375 0.796875 -1.203125zm-4.234375 -2.078125l4.25 0q-0.09375 -0.953125 -0.484375 -1.4375q-0.625 -0.75 -1.609375 -0.75q-0.875 0 -1.484375 0.59375q-0.609375 0.59375 -0.671875 1.59375z" fill-rule="nonzero"/><path fill="#000000" fill-opacity="0.0" d="m418.99466 165.27557l-1.1023865 49.228348" fill-rule="evenodd"/><path stroke="#595959" stroke-width="1.0" stroke-linejoin="round" stroke-linecap="butt" d="m418.99463 165.27557l-0.9680481 43.229843" fill-rule="evenodd"/><path fill="#595959" stroke="#595959" stroke-width="1.0" stroke-linecap="butt" d="m416.37527 208.46844l1.5497131 4.573929l1.7529297 -4.4999695z" fill-rule="evenodd"/></g></svg>